<svg width="32.530968" height="32.367722" xmlns="http://www.w3.org/2000/svg">
 <metadata id="metadata8">image/svg+xml</metadata>

 <g>
  <title>background</title>
  <rect fill="none" id="canvas_background" height="402" width="582" y="-1" x="-1"/>
 </g>
 <g>
  <title>Layer 1</title>
  <path fill="#000000" fill-opacity="0" fill-rule="nonzero" stroke="#69e400" stroke-miterlimit="4" id="path60" d="m32.02971,16.18386c0,8.66247 -7.05775,15.68512 -15.76422,15.68512c-8.70616,0 -15.76423,-7.02265 -15.76423,-15.68512c0,-8.66247 7.05807,-15.68512 15.76423,-15.68512c8.70647,0 15.76422,7.02265 15.76422,15.68512"/>
  <path id="svg_2" d="m12.624938,8.985911l-0.820312,1.636905l-0.820312,1.636905l0.765625,0l0,8.511905l1.75,0l0,-8.511905l0.765625,0l-0.820312,-1.636905l-0.820312,-1.636905zm5.468751,0l-0.820313,1.636905l-0.820312,1.636905l0.765625,0l0,8.511905l1.75,0l0,-8.511905l0.765625,0l-0.820312,-1.636905l-0.820312,-1.636905l0,0zm-8.203125,12.440477l0,1.309523l10.9375,0l0,-1.309523l-10.9375,0z" stroke="#69e400" fill="#28f200"/>
  <line stroke-linecap="null" stroke-linejoin="null" id="svg_3" y2="28.652611" x2="26.171735" y1="5.402611" x1="5.171735" fill-opacity="0" stroke="#69e400" fill="none"/>
 </g>
</svg>